<?xml version="1.0" encoding="UTF-8"?>
<svg version="1.1" xmlns="http://www.w3.org/2000/svg" width="1225" height="204">
<path d="M0 0 C1.6874269 0.00015917 3.37485866 0.00585622 5.06225586 0.01586914 C6.39189613 0.01799156 6.39189613 0.01799156 7.74839783 0.02015686 C10.59133215 0.02577324 13.43418892 0.03832848 16.27709961 0.05102539 C18.19962452 0.05603828 20.12215065 0.06060155 22.04467773 0.06469727 C26.7680151 0.07574798 31.49129419 0.09302356 36.21459961 0.11352539 C55.84954265 48.10230112 55.84954265 48.10230112 63.35986328 66.95996094 C68.37830271 79.55095099 73.45227828 92.11945838 78.52542877 104.68848801 C79.77096931 107.77476687 81.01590634 110.86128922 82.26098633 113.94775391 C87.13591903 126.02924079 92.02096844 138.10653191 96.92553711 150.17602539 C98.24692594 153.43132905 99.56806877 156.68673243 100.88912964 159.94216919 C102.13252913 163.00285178 103.37970062 166.06197971 104.62695312 169.12109375 C105.37380528 170.96094227 106.12047957 172.80086301 106.86694336 174.64086914 C107.20950165 175.47759155 107.55205994 176.31431396 107.90499878 177.1763916 C110.21459961 182.88596665 110.21459961 182.88596665 110.21459961 185.11352539 C95.03459961 185.11352539 79.85459961 185.11352539 64.21459961 185.11352539 C61.06383313 178.02430081 58.18234129 170.98878739 55.46459961 163.73852539 C55.05338867 162.65958008 54.64217773 161.58063477 54.21850586 160.46899414 C53.83049805 159.43645508 53.44249023 158.40391602 53.04272461 157.34008789 C52.69113281 156.4076123 52.33954102 155.47513672 51.97729492 154.5144043 C51.21459961 152.11352539 51.21459961 152.11352539 51.21459961 149.11352539 C28.11459961 149.11352539 5.01459961 149.11352539 -18.78540039 149.11352539 C-19.77540039 152.41352539 -20.76540039 155.71352539 -21.78540039 159.11352539 C-22.50270304 161.17443907 -23.24130481 163.22821363 -24.01196289 165.26977539 C-24.40383789 166.31133789 -24.79571289 167.35290039 -25.19946289 168.42602539 C-25.59907227 169.47790039 -25.99868164 170.52977539 -26.41040039 171.61352539 C-26.81774414 172.69633789 -27.22508789 173.77915039 -27.64477539 174.89477539 C-30.63010702 182.80293866 -30.63010702 182.80293866 -31.78540039 185.11352539 C-46.96540039 185.11352539 -62.14540039 185.11352539 -77.78540039 185.11352539 C-77.12112313 181.79213909 -76.60115155 179.3413331 -75.38452148 176.31958008 C-75.0975087 175.60064575 -74.81049591 174.88171143 -74.51478577 174.14099121 C-74.19932297 173.36364624 -73.88386017 172.58630127 -73.55883789 171.78540039 C-73.05633766 170.53237122 -73.05633766 170.53237122 -72.54368591 169.25402832 C-71.42010464 166.45549328 -70.29026871 163.65952744 -69.16040039 160.86352539 C-68.35365574 158.85813157 -67.54726797 156.85259414 -66.74121094 154.84692383 C-64.55135295 149.40166463 -62.35579204 143.95872238 -60.15875244 138.51635742 C-58.32802905 133.98027057 -56.49979037 129.4431839 -54.6714325 124.90614319 C-49.1406408 111.18253501 -43.6006545 97.46264656 -38.05917835 83.74335003 C-33.90575807 73.46021644 -29.75475796 63.17610568 -25.60431194 52.89177132 C-23.90246351 48.67483659 -22.20008296 44.45811695 -20.49755859 40.24145508 C-19.59479385 38.00480712 -18.69204282 35.76815363 -17.78930664 33.53149414 C-17.14696831 31.94106796 -17.14696831 31.94106796 -16.49165344 30.31851196 C-14.44354221 25.24308366 -12.40486571 20.16423186 -10.38647461 15.0769043 C-10.01393051 14.13921707 -9.64138641 13.20152985 -9.2575531 12.23542786 C-8.56258367 10.48397327 -7.8698003 8.73164911 -7.17958069 6.97831726 C-4.46326322 0.13385472 -4.46326322 0.13385472 0 0 Z M15.21459961 60.11352539 C5.2609241 84.94599123 5.2609241 84.94599123 -3.78540039 110.11352539 C9.08459961 110.11352539 21.95459961 110.11352539 35.21459961 110.11352539 C33.22723632 103.48898108 31.17968274 97.0749161 28.71069336 90.64086914 C28.38674088 89.79174454 28.06278839 88.94261993 27.72901917 88.06776428 C27.05107206 86.29493356 26.37119929 84.5228381 25.68945312 82.75146484 C24.64378144 80.02937153 23.60968138 77.30305421 22.57592773 74.57641602 C21.9132137 72.84763288 21.24982696 71.11910743 20.58569336 69.39086914 C20.2773204 68.57432358 19.96894745 67.75777802 19.65122986 66.91648865 C18.33628526 62.78152109 18.33628526 62.78152109 15.21459961 60.11352539 Z " fill="#000000" transform="translate(808.785400390625,9.886474609375)"/>
<path d="M0 0 C9.65007186 -0.06996676 19.30005442 -0.12304559 28.95032597 -0.15543652 C33.43287778 -0.17099411 37.91525418 -0.19204776 42.39770508 -0.22631836 C46.73549016 -0.25926977 51.07310811 -0.27692717 55.41100883 -0.28463173 C57.05375227 -0.29011183 58.6964881 -0.30080986 60.33915901 -0.31719017 C79.70392181 -0.50234995 98.52588914 2.34419799 114 15 C114.70898438 15.57234375 115.41796875 16.1446875 116.1484375 16.734375 C125.52658078 25.14236552 130.23406955 37.20464183 131.20117188 49.57275391 C131.30190717 52.17755134 131.32938393 54.76836171 131.3125 57.375 C131.30686035 58.294021 131.3012207 59.21304199 131.29541016 60.15991211 C131.02087166 75.5571728 126.02555631 88.60981187 115.28515625 99.81640625 C99.6577241 114.74928586 80.77179049 117.69571048 60 117.25 C58.33856367 117.22986531 56.67710324 117.21162709 55.015625 117.1953125 C51.00980293 117.15195724 47.0051815 117.08333444 43 117 C43.16455185 117.85856598 43.3291037 118.71713196 43.49864197 119.60171509 C43.99109396 122.9396334 44.0836255 126.0026117 44.02172852 129.37255859 C44.00163223 130.61339203 43.98153595 131.85422546 43.96083069 133.13265991 C43.93364099 134.47125485 43.90633004 135.80984733 43.87890625 137.1484375 C43.85457658 138.52990903 43.83073449 139.91138922 43.80735779 141.2928772 C43.74479981 144.91296325 43.67565455 148.53289413 43.60510254 152.15283203 C43.53416208 155.85311877 43.46949948 159.55351474 43.40429688 163.25390625 C43.27564967 170.50272506 43.14003809 177.75139135 43 185 C39.62482331 186.68758835 35.80144401 186.14153358 32.08984375 186.1328125 C31.20720352 186.13376923 30.32456329 186.13472595 29.41517639 186.13571167 C27.54818653 186.13639269 25.68119431 186.13454385 23.81420898 186.13037109 C20.94574712 186.1250154 18.07744139 186.13032199 15.20898438 186.13671875 C13.39843715 186.13605808 11.58789003 186.13477715 9.77734375 186.1328125 C8.91382797 186.13483673 8.05031219 186.13686096 7.16062927 186.13894653 C1.11495439 186.11495439 1.11495439 186.11495439 0 185 C-0.09765691 182.60931863 -0.12996979 180.24756733 -0.12025452 177.85643005 C-0.12110894 177.10011844 -0.12196337 176.34380683 -0.12284368 175.56457669 C-0.12450076 173.01104518 -0.11897342 170.45757827 -0.11352539 167.90405273 C-0.11324354 166.08126833 -0.11340121 164.2584838 -0.1139679 162.43569946 C-0.11425596 157.47103112 -0.10835779 152.50638672 -0.10139394 147.54172397 C-0.09516188 142.35936525 -0.09455672 137.17700605 -0.09336853 131.99464417 C-0.09025478 122.17382442 -0.08204079 112.35301574 -0.07201904 102.53220087 C-0.06085927 91.35464094 -0.0553478 80.17708048 -0.05032361 68.99951637 C-0.03985822 45.99967143 -0.02225792 22.99983633 0 0 Z M43 35 C43 50.51 43 66.02 43 82 C63.71442615 82.87229641 63.71442615 82.87229641 81.3125 73.75 C85.49030175 66.94173049 87.00334723 60.68563433 85.6015625 52.7421875 C83.91443338 46.27851101 80.45708533 42.70517971 75 39 C65.085964 33.35854019 54.19802975 35 43 35 Z " fill="#000000" transform="translate(176,10)"/>
<path d="M0 0 C1.17113799 0.00138269 1.17113799 0.00138269 2.36593533 0.00279331 C3.70584782 0.00073132 3.70584782 0.00073132 5.07282925 -0.00137234 C6.55420376 0.00402058 6.55420376 0.00402058 8.06550503 0.00952244 C9.09952953 0.00937641 10.13355404 0.00923038 11.19891262 0.00907993 C14.63485175 0.00977956 18.07073742 0.01757425 21.50666714 0.02539158 C23.88178382 0.02725558 26.25690089 0.02867957 28.63201809 0.0296793 C34.89727233 0.03350586 41.16250356 0.04333732 47.42774868 0.05438328 C53.81537979 0.06459443 60.2030146 0.06917628 66.59065151 0.0742197 C79.13428307 0.08495947 91.67789147 0.10255738 104.22151089 0.12304783 C104.22151089 12.66304783 104.22151089 25.20304783 104.22151089 38.12304783 C83.10151089 38.12304783 61.98151089 38.12304783 40.22151089 38.12304783 C40.22151089 49.67304783 40.22151089 61.22304783 40.22151089 73.12304783 C60.35151089 73.12304783 80.48151089 73.12304783 101.22151089 73.12304783 C101.22151089 85.66304783 101.22151089 98.20304783 101.22151089 111.12304783 C81.09151089 111.12304783 60.96151089 111.12304783 40.22151089 111.12304783 C40.22151089 123.00304783 40.22151089 134.88304783 40.22151089 147.12304783 C61.34151089 147.12304783 82.46151089 147.12304783 104.22151089 147.12304783 C104.22151089 159.66304783 104.22151089 172.20304783 104.22151089 185.12304783 C90.86111567 185.27621239 77.50069151 185.42499195 64.14016247 185.56601143 C57.93661258 185.63166566 51.73309627 185.6992559 45.52961636 185.77124119 C39.54504236 185.84061555 33.5604336 185.90494286 27.57576656 185.96574306 C25.29036133 185.98985369 23.00497467 186.01579542 20.71961117 186.04358196 C17.52333385 186.08213374 14.32705297 186.11422607 11.13069057 186.14477634 C10.18194561 186.15772236 9.23320065 186.17066837 8.25570583 186.18400669 C7.38354931 186.19104618 6.51139278 186.19808567 5.61280727 186.20533848 C4.4790019 186.21778268 4.4790019 186.21778268 3.32229137 186.23047829 C1.1697419 186.12040045 -0.71096222 185.71597958 -2.77848911 185.12304783 C-2.80181535 161.14970007 -2.81946693 137.17635401 -2.83030128 113.20299721 C-2.83546483 102.0725838 -2.84250863 90.94217743 -2.85392857 79.81176853 C-2.86387363 70.11424567 -2.87034211 60.4167279 -2.87257761 50.71920007 C-2.87388502 45.58106953 -2.87697278 40.44295357 -2.88421917 35.30482769 C-2.89097658 30.47455337 -2.89310665 25.64429971 -2.89159679 20.81402111 C-2.89187325 19.0357893 -2.89388002 17.25755685 -2.89769459 15.47932911 C-2.90262749 13.06241147 -2.90148891 10.64557316 -2.89874363 8.22865391 C-2.90165647 7.51563226 -2.90456931 6.80261062 -2.90757042 6.06798226 C-2.88939813 0.19990798 -2.88939813 0.19990798 0 0 Z " fill="#000000" transform="translate(326.778489112854,9.876952171325684)"/>
<path d="M0 0 C-1.38097659 4.4748383 -3.14918679 8.53202474 -5.2578125 12.7109375 C-5.56572723 13.32393707 -5.87364197 13.93693665 -6.19088745 14.56851196 C-7.16515063 16.50593658 -8.14496917 18.4404876 -9.125 20.375 C-9.7907353 21.69642788 -10.45610353 23.01804076 -11.12109375 24.33984375 C-12.74315823 27.56204525 -14.37021374 30.78169593 -16 34 C-20.35564203 34 -22.10022664 33.16626507 -25.9375 31.25 C-38.77963026 25.16006603 -51.95915493 20.66055588 -66 25 C-68.88709988 26.4955108 -68.88709988 26.4955108 -71 28 C-71.66 28 -72.32 28 -73 28 C-74.75954753 32.50884055 -75.51828487 36.16267452 -75 41 C-72.07278528 46.56467977 -68.6234054 48.86795626 -63.25 51.6875 C-62.47648193 52.10684814 -61.70296387 52.52619629 -60.90600586 52.95825195 C-53.30813107 56.99837397 -45.47743784 60.54921957 -37.58886719 63.98120117 C-21.7614644 70.97603835 -4.55323667 82.41492031 2.875 98.75 C7.74360597 112.81486169 5.91457774 129.78701251 -0.1875 143.125 C-8.08317191 157.76489166 -20.0136628 166.24478676 -35.703125 171.16015625 C-66.39270813 179.67199692 -96.53008733 173.71902551 -123.80029297 158.35205078 C-127.3867669 156.14762319 -130.70355174 153.61275713 -134 151 C-133.42512686 146.46911278 -131.64306982 143.38654854 -129.25390625 139.52734375 C-128.88273178 138.92241592 -128.51155731 138.3174881 -128.12913513 137.69422913 C-126.94724049 135.7709099 -125.7553199 133.85405874 -124.5625 131.9375 C-123.37530892 130.01617249 -122.19023869 128.09356259 -121.00657654 126.1700592 C-119.93204078 124.4260814 -118.85202506 122.68548355 -117.77172852 120.94506836 C-116.39726841 118.66036224 -115.13736035 116.40777317 -114 114 C-110.42955692 115.28585887 -107.74322814 116.81009334 -104.75 119.125 C-100.14250105 122.43490512 -95.37120115 124.91930213 -90.25 127.3125 C-89.1686377 127.81837646 -89.1686377 127.81837646 -88.06542969 128.33447266 C-80.7903735 131.66256701 -74.71212668 133.38840592 -66.6875 133.375 C-65.84316406 133.37556396 -64.99882813 133.37612793 -64.12890625 133.37670898 C-57.94657246 133.26725009 -53.31982217 132.24665618 -48 129 C-47.01 128.67 -46.02 128.34 -45 128 C-42.71979152 122.35948428 -42.78197255 117.01998014 -43 111 C-43.66 111 -44.32 111 -45 111 C-45.33 110.01 -45.66 109.02 -46 108 C-55.48606203 100.15841953 -67.31634374 95.30386677 -78.42871094 90.2253418 C-92.61649852 83.66385575 -106.78463664 74.37767258 -114 60 C-114.391875 59.26007813 -114.78375 58.52015625 -115.1875 57.7578125 C-120.39796679 46.14281361 -119.62400718 30.67795456 -115.328125 18.89453125 C-108.44352395 3.89015073 -97.05697582 -6.50811025 -81.89453125 -12.93359375 C-55.01976733 -22.83482256 -23.30397241 -15.53598161 0 0 Z " fill="#000000" transform="translate(1051,24)"/>
<path d="M0 0 C98.01558824 0 98.01558824 0 117.75 18.3125 C128.43602025 29.72768398 131.63632478 44.17653646 131.40234375 59.41455078 C130.76188073 76.23762214 125.44219559 90.40339052 113 102 C97.23422439 115.06161345 79.94628365 117.49392882 60.1875 117.1875 C54.515625 117.125625 48.84375 117.06375 43 117 C43 139.44 43 161.88 43 185 C28.81 185 14.62 185 0 185 C0 123.95 0 62.9 0 0 Z M43 35 C43 50.51 43 66.02 43 82 C64.05186222 82.74590811 64.05186222 82.74590811 81.6796875 73.45703125 C85.94844786 67.99446503 85.63730046 61.43299496 85.46875 54.8046875 C84.65073729 48.16515098 81.95206148 44.38763155 76.89453125 40.3203125 C66.64275361 33.17577468 55.1833201 35 43 35 Z " fill="#000000" transform="translate(602,10)"/>
<path d="M0 0 C97.82568807 0 97.82568807 0 117.28515625 18.12890625 C128.02689879 29.35252135 131.41592167 44.29849123 131.1484375 59.46484375 C130.19687121 75.71659441 125.47141469 90.33581617 113.3125 101.6875 C100.64327197 112.01779362 86.0564517 117.21266498 69.7578125 117.09765625 C68.73482056 117.09614563 68.73482056 117.09614563 67.69116211 117.09460449 C65.16909071 117.08941389 62.64704348 117.07545295 60.125 117.0625 C54.47375 117.041875 48.8225 117.02125 43 117 C43 139.44 43 161.88 43 185 C28.81 185 14.62 185 0 185 C0 123.95 0 62.9 0 0 Z M43 35 C43 50.51 43 66.02 43 82 C58.71493809 82.76217011 58.71493809 82.76217011 73 79 C73.66128906 78.7215625 74.32257813 78.443125 75.00390625 78.15625 C79.99025776 75.74114864 81.72033719 72.82236363 84 68 C86.12980695 61.61057915 86.19604264 53.59990967 83.3125 47.4375 C79.56958114 41.23829064 73.66183664 38.33000198 67 36 C59.10200162 34.68366694 51.00694143 35 43 35 Z " fill="#000000" transform="translate(454,10)"/>
<path d="" fill="#FFFFFF" transform="translate(0,0)"/>
<path d="" fill="#FFFFFF" transform="translate(0,0)"/>
<path d="" fill="#FFFFFF" transform="translate(0,0)"/>
<path d="" fill="#FFFFFF" transform="translate(0,0)"/>
<path d="" fill="#FFFFFF" transform="translate(0,0)"/>
<path d="" fill="#FFFFFF" transform="translate(0,0)"/>
<path d="" fill="#FFFFFF" transform="translate(0,0)"/>
<path d="" fill="#FFFFFF" transform="translate(0,0)"/>
<path d="" fill="#FFFFFF" transform="translate(0,0)"/>
<path d="" fill="#FFFFFF" transform="translate(0,0)"/>
<path d="" fill="#FFFFFF" transform="translate(0,0)"/>
<path d="" fill="#FFFFFF" transform="translate(0,0)"/>
<path d="" fill="#FFFFFF" transform="translate(0,0)"/>
<path d="" fill="#FFFFFF" transform="translate(0,0)"/>
<path d="" fill="#FFFFFF" transform="translate(0,0)"/>
<path d="" fill="#FFFFFF" transform="translate(0,0)"/>
<path d="" fill="#FFFFFF" transform="translate(0,0)"/>
<path d="" fill="#FFFFFF" transform="translate(0,0)"/>
<path d="" fill="#FFFFFF" transform="translate(0,0)"/>
<path d="" fill="#FFFFFF" transform="translate(0,0)"/>
<path d="" fill="#FFFFFF" transform="translate(0,0)"/>
<path d="" fill="#FFFFFF" transform="translate(0,0)"/>
<path d="" fill="#FFFFFF" transform="translate(0,0)"/>
<path d="" fill="#FFFFFF" transform="translate(0,0)"/>
<path d="" fill="#FFFFFF" transform="translate(0,0)"/>
<path d="" fill="#FFFFFF" transform="translate(0,0)"/>
<path d="" fill="#FFFFFF" transform="translate(0,0)"/>
<path d="" fill="#FFFFFF" transform="translate(0,0)"/>
<path d="" fill="#FFFFFF" transform="translate(0,0)"/>
<path d="" fill="#FFFFFF" transform="translate(0,0)"/>
<path d="" fill="#FFFFFF" transform="translate(0,0)"/>
<path d="" fill="#FFFFFF" transform="translate(0,0)"/>
<path d="" fill="#FFFFFF" transform="translate(0,0)"/>
<path d="" fill="#FFFFFF" transform="translate(0,0)"/>
<path d="" fill="#FFFFFF" transform="translate(0,0)"/>
<path d="" fill="#FFFFFF" transform="translate(0,0)"/>
<path d="" fill="#FFFFFF" transform="translate(0,0)"/>
<path d="" fill="#FFFFFF" transform="translate(0,0)"/>
<path d="" fill="#FFFFFF" transform="translate(0,0)"/>
<path d="" fill="#FFFFFF" transform="translate(0,0)"/>
<path d="" fill="#FFFFFF" transform="translate(0,0)"/>
<path d="" fill="#FFFFFF" transform="translate(0,0)"/>
<path d="" fill="#FFFFFF" transform="translate(0,0)"/>
<path d="" fill="#FFFFFF" transform="translate(0,0)"/>
<path d="" fill="#FFFFFF" transform="translate(0,0)"/>
<path d="" fill="#FFFFFF" transform="translate(0,0)"/>
<path d="" fill="#FFFFFF" transform="translate(0,0)"/>
<path d="" fill="#FFFFFF" transform="translate(0,0)"/>
<path d="" fill="#FFFFFF" transform="translate(0,0)"/>
<path d="" fill="#FFFFFF" transform="translate(0,0)"/>
<path d="" fill="#FFFFFF" transform="translate(0,0)"/>
<path d="" fill="#FFFFFF" transform="translate(0,0)"/>
<path d="" fill="#FFFFFF" transform="translate(0,0)"/>
<path d="" fill="#FFFFFF" transform="translate(0,0)"/>
<path d="" fill="#FFFFFF" transform="translate(0,0)"/>
<path d="" fill="#FFFFFF" transform="translate(0,0)"/>
<path d="" fill="#FFFFFF" transform="translate(0,0)"/>
<path d="" fill="#FFFFFF" transform="translate(0,0)"/>
<path d="" fill="#FFFFFF" transform="translate(0,0)"/>
<path d="" fill="#FFFFFF" transform="translate(0,0)"/>
</svg>
