<?xml version="1.0" encoding="UTF-8"?>
<svg version="1.1" xmlns="http://www.w3.org/2000/svg" width="50" height="50">
<path d="M0 0 C0.886875 -0.00257812 1.77375 -0.00515625 2.6875 -0.0078125 C4.0796875 0.00378906 4.0796875 0.00378906 5.5 0.015625 C6.428125 0.00789062 7.35625 0.00015625 8.3125 -0.0078125 C9.6428125 -0.00394531 9.6428125 -0.00394531 11 0 C11.8146875 0.00225586 12.629375 0.00451172 13.46875 0.00683594 C15.5 0.265625 15.5 0.265625 17.5 2.265625 C17.69965373 4.89502696 17.7798411 7.41682663 17.765625 10.046875 C17.76753845 10.81616333 17.7694519 11.58545166 17.77142334 12.37805176 C17.77278508 14.0054558 17.76908939 15.6328707 17.76074219 17.26025391 C17.75004221 19.75578131 17.76063751 22.25058882 17.7734375 24.74609375 C17.7721159 26.32552243 17.7695535 27.90495066 17.765625 29.484375 C17.76967346 30.2333606 17.77372192 30.98234619 17.77789307 31.75402832 C17.72992243 37.03570257 17.72992243 37.03570257 15.5 39.265625 C13.34521484 39.58447266 13.34521484 39.58447266 10.7109375 39.6796875 C9.76992188 39.71835937 8.82890625 39.75703125 7.859375 39.796875 C6.87453125 39.8278125 5.8896875 39.85875 4.875 39.890625 C3.38613281 39.94863281 3.38613281 39.94863281 1.8671875 40.0078125 C-0.58835385 40.1022564 -3.0438841 40.18782375 -5.5 40.265625 C-5.83 40.925625 -6.16 41.585625 -6.5 42.265625 C-6.54934926 36.60564454 -6.58569529 30.94578864 -6.60986328 25.28564453 C-6.61993582 23.35919006 -6.63359443 21.43275092 -6.65087891 19.50634766 C-6.67507241 16.74117248 -6.68647036 13.976199 -6.6953125 11.2109375 C-6.70563507 10.3463089 -6.71595764 9.4816803 -6.72659302 8.59085083 C-6.72699106 6.48108979 -6.62265243 4.37181782 -6.5 2.265625 C-4.05013068 -0.18424432 -3.362922 0.00931189 0 0 Z M-1.5 8.265625 C-1.5 8.925625 -1.5 9.585625 -1.5 10.265625 C1.47 10.265625 4.44 10.265625 7.5 10.265625 C7.5 9.605625 7.5 8.945625 7.5 8.265625 C4.53 8.265625 1.56 8.265625 -1.5 8.265625 Z M11.5 8.265625 C12.5 10.265625 12.5 10.265625 12.5 10.265625 Z M-1.5 13.265625 C-1.5 13.925625 -1.5 14.585625 -1.5 15.265625 C1.47 15.265625 4.44 15.265625 7.5 15.265625 C7.5 14.605625 7.5 13.945625 7.5 13.265625 C4.53 13.265625 1.56 13.265625 -1.5 13.265625 Z M11.5 13.265625 C12.5 15.265625 12.5 15.265625 12.5 15.265625 Z M-1.5 18.265625 C-1.5 18.925625 -1.5 19.585625 -1.5 20.265625 C1.47 20.265625 4.44 20.265625 7.5 20.265625 C7.5 19.605625 7.5 18.945625 7.5 18.265625 C4.53 18.265625 1.56 18.265625 -1.5 18.265625 Z M11.5 18.265625 C12.5 20.265625 12.5 20.265625 12.5 20.265625 Z M-1.5 23.265625 C-1.5 23.925625 -1.5 24.585625 -1.5 25.265625 C1.47 25.265625 4.44 25.265625 7.5 25.265625 C7.5 24.605625 7.5 23.945625 7.5 23.265625 C4.53 23.265625 1.56 23.265625 -1.5 23.265625 Z M11.5 23.265625 C12.5 25.265625 12.5 25.265625 12.5 25.265625 Z M-1.5 28.265625 C-1.5 28.925625 -1.5 29.585625 -1.5 30.265625 C1.47 30.265625 4.44 30.265625 7.5 30.265625 C7.5 29.605625 7.5 28.945625 7.5 28.265625 C4.53 28.265625 1.56 28.265625 -1.5 28.265625 Z M11.5 28.265625 C12.5 30.265625 12.5 30.265625 12.5 30.265625 Z " fill="#000000" transform="translate(32.5,3.734375)"/>
<path d="M0 0 C0.886875 -0.00257812 1.77375 -0.00515625 2.6875 -0.0078125 C4.0796875 0.00378906 4.0796875 0.00378906 5.5 0.015625 C6.428125 0.00789062 7.35625 0.00015625 8.3125 -0.0078125 C9.6428125 -0.00394531 9.6428125 -0.00394531 11 0 C11.8146875 0.00225586 12.629375 0.00451172 13.46875 0.00683594 C15.5 0.265625 15.5 0.265625 17.5 2.265625 C17.67546482 5.27871451 17.73127445 8.19872954 17.6953125 11.2109375 C17.6924826 12.0959494 17.68965271 12.9809613 17.68673706 13.89279175 C17.6755224 16.72553912 17.6504157 19.55797284 17.625 22.390625 C17.61497185 24.30858919 17.60584572 26.22655833 17.59765625 28.14453125 C17.57557889 32.85168376 17.54104045 37.55860116 17.5 42.265625 C17.17 41.605625 16.84 40.945625 16.5 40.265625 C15.87432129 40.24580566 15.24864258 40.22598633 14.60400391 40.20556641 C11.77723481 40.11048274 8.95122185 40.00073754 6.125 39.890625 C5.14015625 39.8596875 4.1553125 39.82875 3.140625 39.796875 C1.72910156 39.73886719 1.72910156 39.73886719 0.2890625 39.6796875 C-1.01490479 39.63255615 -1.01490479 39.63255615 -2.34521484 39.58447266 C-4.5 39.265625 -4.5 39.265625 -6.5 37.265625 C-6.69965373 34.63622304 -6.7798411 32.11442337 -6.765625 29.484375 C-6.76753845 28.71508667 -6.7694519 27.94579834 -6.77142334 27.15319824 C-6.77278508 25.5257942 -6.76908939 23.8983793 -6.76074219 22.27099609 C-6.75004221 19.77546869 -6.76063751 17.28066118 -6.7734375 14.78515625 C-6.7721159 13.20572757 -6.7695535 11.62629934 -6.765625 10.046875 C-6.76967346 9.2978894 -6.77372192 8.54890381 -6.77789307 7.77722168 C-6.72505554 1.95969205 -5.94742081 0.01646833 0 0 Z M3.5 7.265625 C1.06230782 10.92216327 1.26055561 12.95562601 1.5 17.265625 C1.83 17.595625 2.16 17.925625 2.5 18.265625 C2.897493 20.61286466 3.24368723 22.96891048 3.5625 25.328125 C3.73910156 26.61847656 3.91570313 27.90882812 4.09765625 29.23828125 C4.23042969 30.23730469 4.36320313 31.23632812 4.5 32.265625 C6.29210776 29.15301679 6.81478453 26.64628183 7.0625 23.078125 C7.40063091 18.36499409 7.40063091 18.36499409 8.5 17.265625 C8.83856828 11.93889464 8.83856828 11.93889464 6.5 7.265625 C5.51 7.265625 4.52 7.265625 3.5 7.265625 Z " fill="#000000" transform="translate(6.5,3.734375)"/>
</svg>
